<?xml version="1.0" encoding="UTF-8"?>
<svg width="1200pt" height="1200pt" version="1.1" viewBox="0 0 1200 1200" xmlns="http://www.w3.org/2000/svg">
 <path d="m546 399.6c-4.8008-37.199-4.8008-72-2.3984-105.6 2.3984-33.602 4.8008-55.199 4.8008-63.602 1.1992-21.602-2.3984-43.199-12-62.398 0 0-2.3984-4.8008-8.3984-13.199-3.6016-6-6-13.199-7.1992-20.398-1.1992-7.1992 0-14.398 3.6016-19.199 4.8008-7.1992 10.801-10.801 19.199-10.801 8.3984 0 15.602 4.8008 22.801 12 7.1992 7.1992 12 16.801 15.602 26.398 2.3984 7.1992 6 14.398 8.3984 21.602 1.1992 3.6016 3.6016 3.6016 4.8008 0 3.6016-8.3984 7.1992-18 10.801-26.398 4.8008-10.801 10.801-19.199 20.398-25.199 7.1953-3.6055 14.395-4.8047 21.594-4.8047 8.3984 0 15.602 4.8008 20.398 12 2.3984 4.8008 3.6016 10.801 3.6016 16.801-1.1992 6-2.3984 12-4.8008 18-9.6016 21.602-14.398 42-13.199 62.398 1.1992 19.199 1.1992 38.398 1.1992 57.602 0 34.801-4.8008 69.602-16.801 102-4.8008 14.398-9.6016 28.801-14.398 43.199-7.1992 20.398-9.6016 42-9.6016 64.801 0 21.602 1.1992 51.602 3.6016 88.801 1.1992 16.801 0 33.602-3.6016 50.398 0 1.1992-4.8008 15.602-13.199 43.199-4.8008 13.199-7.1992 26.398-9.6016 40.801-2.3984 9.6016-3.5977 24-3.5977 40.801 0 38.398 0 70.801 2.3984 99.602 0 2.3984 1.1992 2.3984 1.1992 2.3984 1.1992 0 1.1992-1.1992 1.1992-2.3984 4.8008-34.801 7.1992-70.801 8.3984-106.8 0-28.801 7.1992-58.801 20.398-90 9.6016-22.801 12-48 9.6016-76.801-3.6016-43.199-6-78-3.6016-105.6 1.1992-22.801 7.1992-48 19.199-76.801 16.801-40.801 24-84 21.602-129.6v-30c0-15.602 4.8008-30 12-44.398 10.801-20.398 26.398-36 45.602-45.602 4.8008-2.3984 10.801-3.6016 15.602-1.1992 4.8008 1.1992 8.3984 4.8008 12 9.6016 4.8008 8.3984 4.8008 16.801 0 26.398-3.6016 6-7.1992 12-12 18-13.199 18-18 37.199-13.199 57.602 1.1992 4.8008 2.3984 4.8008 4.8008 1.1992 7.1992-9.6016 13.199-19.199 20.398-30 3.6016-6 9.6016-10.801 16.801-15.602 8.3984-4.8008 16.801-6 24-3.6016 7.1992 2.3984 12 7.1992 14.398 15.602 3.6016 8.3984 2.3984 16.801-2.3984 24-1.1992 2.3984-7.1992 7.1992-16.801 14.398-21.602 15.602-33.602 36-36 62.398 0 2.3984-1.1992 10.801-1.1992 25.199 0 8.3984-1.1992 16.801-1.1992 25.199 0 15.602-4.8008 28.801-14.398 39.602-12 14.398-19.199 30-22.801 48-2.3984 9.6016-1.1992 27.602 1.1992 51.602 3.6016 27.602 4.8008 50.398 6 68.398 1.1992 34.801-4.8008 69.602-18 104.4-8.3984 21.602-12 33.602-13.199 37.199-3.6016 13.199-3.6016 26.398-2.3984 39.602 1.1992 10.801 2.3984 21.602 6 33.602 4.8008 18 6 30 7.1992 33.602 1.1992 18-1.1992 36-8.3984 54-3.6016 8.3984-4.8008 15.602-4.8008 25.199 0 6 1.1992 7.1992 4.8008 1.1992 22.801-33.602 28.801-69.602 16.801-108-3.6016-10.801-6-25.199-8.3984-42-2.3984-15.602 1.1992-32.398 9.6016-51.602 19.199-46.801 27.602-96 22.801-148.8-2.3984-27.602-3.6016-45.602-4.8008-54-4.8008-43.199 8.3984-78 40.801-104.4 4.8008-3.6016 8.3984-7.1992 12-10.801 1.1992-1.1992 2.3984-3.6016 1.1992-6-6-15.602-2.3984-27.602 9.6016-37.199 7.1992-4.8008 14.398-7.1992 22.801-4.8008 16.801 4.8008 24 15.602 21.602 31.199 0 3.6016-2.3984 7.1992-4.8008 12-2.3984 3.6016-4.8008 7.1992-7.1992 10.801-14.398 22.801-21.602 46.801-20.398 69.602 0 9.6016 4.8008 13.199 14.398 8.3984 12-4.8008 21.602-13.199 27.602-22.801 4.8008-7.1992 9.6016-18 13.199-32.398 7.1992-25.199 7.1992-49.199 0-75.602-6-21.602-9.6016-38.398-13.199-48-2.3984-6-2.3984-12-1.1992-18s3.6016-10.801 8.3984-14.398c6-4.8008 13.199-6 20.398-2.3984 4.8008 2.3984 8.3984 6 9.6016 10.801 2.3984 4.8008 2.3984 9.6016 2.3984 15.602-1.1992 8.3984-1.1992 18-1.1992 26.398 0 12 2.3984 22.801 9.6016 32.398 1.1992 1.1992 2.3984 1.1992 3.6016 1.1992h1.1992c6-8.3984 12-18 19.199-27.602 6-8.3984 12-12 20.398-10.801 7.1992 1.1992 13.199 4.8008 15.602 10.801 3.6016 8.3984 3.6016 15.602-3.6016 22.801 0 0-3.6016 3.6016-12 9.6016-15.602 13.199-20.398 30-14.398 51.602 2.3984 9.6016 7.1992 10.801 13.199 4.8008 3.6016-3.6016 7.1992-6 10.801-8.3984 4.8008-3.6016 8.3984-4.8008 13.199-6 13.199-3.6016 20.398 2.3984 25.199 16.801 2.3984 8.3984-1.1992 14.398-9.6016 20.398-3.6016 2.3984-10.801 6-21.602 9.6016-10.801 4.8008-20.398 10.801-27.602 18-7.1992 8.3984-10.801 12-10.801 12-18 16.801-28.801 26.398-32.398 30-14.398 12-26.398 26.398-36 40.801-8.3984 13.199-15.602 28.801-20.398 49.199-4.8008 19.199-9.6016 39.602-12 58.801-2.3984 20.398-4.8008 33.602-6 38.398-3.6016 15.602-7.1992 27.602-12 37.199-7.1992 15.602-13.199 28.801-16.801 38.398 0 1.1992 0 2.3984 1.1992 2.3984 0 0 1.1992 0 1.1992-1.1992 20.398-20.398 33.602-45.602 38.398-75.602 4.8008-24 7.1992-40.801 8.3984-50.398 3.6016-26.398 9.6016-50.398 18-72 4.8008-12 12-22.801 22.801-33.602 14.398-13.199 28.801-13.199 43.199 0 3.6016 2.3984 4.8008 2.3984 3.6016-2.3984-2.3984-22.801 4.8008-34.801 22.801-36 6 0 12 1.1992 16.801 4.8008 6 4.8008 7.1992 10.801 6 18-1.1992 6-6 10.801-13.199 15.602-3.6016 2.3984-8.3984 4.8008-13.199 6-4.8008 2.3984-9.6016 3.6016-12 7.1992-12 12-20.398 26.398-24 43.199v3.6016c3.6016 6 9.6016 8.3984 15.602 6 3.6016-1.1992 7.1992-3.6016 10.801-9.6016 12-13.199 19.199-21.602 24-25.199 15.602-9.6016 27.602-8.3984 36 3.6016 3.6016 3.6016 4.8008 8.3984 3.6016 12-1.1992 4.8008-3.6016 8.3984-8.3984 12-2.3984 2.3984-9.6016 6-19.199 10.801-20.398 10.801-33.602 26.398-42 45.602-1.1992 3.6016 0 4.8008 3.6016 3.6016 8.3984-2.3984 18-2.3984 25.199 1.1992 4.8008 1.1992 8.3984 4.8008 10.801 7.1992 2.3984 3.6016 3.6016 8.3984 2.3984 13.199-1.1992 4.8008-3.6016 9.6016-7.1992 12-4.8008 2.3984-9.6016 3.6016-15.602 3.6016-6-1.1992-13.199-1.1992-19.199-2.3984-16.801-3.6016-31.199 0-44.398 10.801-7.1992 6-10.801 13.199-12 21.602-1.1992 7.1992 2.3984 10.801 9.6016 8.3984 16.801-4.8008 33.602-8.3984 50.398-9.6016 13.199-1.1992 20.398 2.3984 25.199 12 3.6016 8.3984 2.3984 15.602-3.6016 21.602s-15.602 7.1992-27.602 1.1992c-3.6016-1.1992-7.1992-2.3984-10.801-2.3984-15.602 1.1992-30 6-42 13.199-9.6016 6-19.199 15.602-30 30-13.199 18-22.801 36-28.801 51.602-6 15.602-6 33.602-1.1992 55.199 0 1.1992 1.1992 1.1992 1.1992 0 3.6016-6 7.1992-12 9.6016-18 3.6016-8.3984 7.1992-14.398 10.801-16.801 8.3984-9.6016 18-15.602 28.801-18 33.602-7.1992 61.199-14.398 82.801-21.602 9.6016-3.6016 16.801-4.8008 21.602-4.8008 8.3984 1.1992 15.602 6 18 15.602 2.3984 7.1992 1.1992 14.398-4.8008 21.602-7.1992 8.3984-16.801 12-26.398 9.6016-8.3984-2.3984-12-2.3984-12-2.3984-24-2.3984-42 7.1992-55.199 27.602-10.801 18-14.398 37.199-8.3984 56.398 2.3984 7.1992 3.6016 10.801 3.6016 12 0 6-3.6016 9.6016-8.3984 10.801-4.8008 1.1992-9.6016 2.3984-15.602 2.3984-18-1.1992-36-2.3984-52.801-1.1992-32.398 2.3984-57.602 16.801-75.602 42-7.1992 9.6016-13.199 22.801-19.199 37.199 0 0-1.1992 2.3984-2.3984 7.1992-7.1992 19.199-20.398 28.801-42 30-36 2.3984-72 2.3984-108 0-18-1.1992-30-8.3984-38.398-22.801-8.3984-15.602-13.199-24-15.602-27.602-16.801-25.199-39.602-40.801-69.602-44.398-16.816 2.3945-32.418 1.1953-48.02 2.3945-7.1992 0-13.199 0-20.398-2.3984-9.6016-2.3984-10.801-7.1992-3.6016-14.398 4.8008-4.8008 10.801-9.6016 16.801-13.199 4.8008-2.3984 6-7.1992 4.8008-12-2.3984-13.199-10.801-22.801-22.801-27.602-6-2.3984-9.6016-6-12-10.801-3.6016-6-6-9.6016-6-10.801-3.6016-4.8008-8.3984-8.3984-13.199-12-7.1992-4.8008-12-8.3984-14.398-9.6016-12-7.1992-24-6-36 1.1992-6 3.6016-13.199 7.1992-21.602 10.801-13.199 6-24 3.6016-32.398-7.1992-3.6016-4.8008-4.8008-9.6016-2.3984-15.602 1.1992-4.8008 4.8008-8.3984 9.6016-10.801 4.8008-2.3984 9.6016-3.6016 14.398-2.3984 4.8008 1.1992 7.1992 1.1992 7.1992 1.1992 10.801 1.1992 20.398-1.1992 28.801-4.8008 8.3984-4.8008 10.801-10.801 7.1992-21.602-9.6016-30-28.801-54-58.801-72-7.1992-4.8008-8.3984-10.801-6-20.398 2.3984-6 6-9.6016 12-10.801h14.398c7.1992 1.1992 12 3.6016 15.602 8.3984 3.6016 4.8008 6 8.3984 9.6016 13.199 3.6016 3.6016 6 6 8.3984 7.1992 6 2.3984 9.6016 0 12-8.3984 2.3984-8.3984 2.3984-16.801 3.6016-26.398 0-9.6016 0-18-2.3984-26.398-7.1992-27.602-24-45.602-51.602-56.398-8.3984-3.6016-15.602-7.1992-20.398-9.6016-4.8008-3.6016-7.1992-8.3984-7.1992-13.199s1.1992-9.6016 6-13.199c7.1992-6 15.602-7.1992 25.199-1.1992 6 3.6016 12 8.3984 16.801 13.199 7.1992 8.3984 15.602 14.398 25.199 20.398h1.1992c0-8.3984 1.1992-18 3.6016-26.398 1.1992-6 3.6016-9.6016 7.1992-12 4.8008-3.6016 9.6016-3.6016 15.602-1.1992 4.8008 2.3984 8.3984 4.8008 10.801 10.801 2.3984 4.8008 3.6016 9.6016 3.6016 14.398 0 9.6016 2.3984 18 3.6016 26.398 1.1992 2.3984 1.1992 3.6016 3.6016 4.8008 2.3984 2.3984 4.8008 1.1992 7.1992-3.6016 1.1992-3.6016 2.3984-8.3984 2.3984-13.199v-13.199c0-30-13.199-51.602-42-64.801-4.8008-2.3984-19.199-6-43.199-12-4.8008-1.1992-9.6016-3.6016-13.199-8.3984-3.6016-4.8008-4.8008-8.3984-4.8008-14.398 0-7.1992 3.6016-12 10.801-14.398 6-2.3984 12-3.6016 21.602-3.6016 1.1992 0 2.3984 0 3.6016-1.1992 4.8008-3.6016 4.8008-8.3984 0-14.398-2.3984-3.6016-6-7.1992-10.801-8.3984-9.6016-4.8008-20.398-8.3984-32.398-12-8.3984-2.3984-14.398-4.8008-16.801-7.1992-6-4.8008-8.3984-10.801-7.1992-18 1.1992-7.1992 4.8008-10.801 9.6016-13.199 6-2.3984 12-2.3984 19.199 1.1992 2.3984 1.1992 8.3984 4.8008 15.602 10.801 3.6016 2.3984 8.3984 3.6016 13.199 2.3984 1.1992 0 2.3984-1.1992 2.3984-2.3984 2.3984-26.398-7.1992-48-28.801-63.602-7.1992-4.8008-9.6016-10.801-8.3984-19.199 1.1992-7.1992 3.6016-12 9.6016-15.602 4.8008-3.6016 10.801-4.8008 16.801-3.6016 4.8008 1.1992 9.6016 3.6016 14.398 8.3984 8.3984 8.3984 14.398 19.199 18 31.199 3.6016 10.801 8.3984 18 13.199 20.398 9.6016 4.8008 15.602 2.3984 18-8.3984 2.3984-7.1992 8.3984-25.199 18-51.602 2.3984-6 4.8008-13.199 6-20.398 1.1992-4.8008 1.1992-9.6016 2.3984-14.398 1.1992-6 2.3984-9.6016 4.8008-13.199 7.1992-9.6016 15.602-12 26.398-7.1992 4.8008 2.3984 9.6016 7.1992 12 12 2.3984 6 3.6016 12 1.1992 18-8.3984 22.801-13.199 38.398-14.398 44.398-3.6016 16.801-8.3984 32.398-14.398 45.602-19.199 38.398-16.801 74.398 9.6016 108 6 7.1992 14.398 19.199 24 34.801 7.1992 9.6016 10.801 24 13.199 43.199 1.1992 12 1.1992 34.801 0 67.199-2.3984 37.199 4.8008 73.199 21.602 106.8 4.8008 8.3984 8.3984 25.199 10.801 48 3.6016 25.199 9.6016 49.199 20.398 70.801 7.1992 15.602 19.199 26.398 34.801 33.602 1.1992 1.1992 3.6016 1.1992 4.8008 1.1992 7.1992 1.1992 7.1992-1.1992 1.1992-7.1992-19.199-16.801-32.398-37.199-39.602-62.398-4.8008-15.602-7.1992-30-9.6016-43.199-2.3984-16.801-6-32.398-10.801-48-3.6016-9.6016-7.1992-20.398-10.801-30-3.6016-10.801-7.1992-21.602-8.3984-30-2.3984-20.398-3.6016-40.801-1.1992-62.398 2.3984-24 2.3984-44.398 1.1992-58.801-1.1992-15.602-8.3984-31.199-18-45.602-13.199-18-24-37.199-34.801-55.199-12-21.602-10.801-40.801 2.3984-57.602 3.6016-4.8008 8.3984-8.3984 13.199-8.3984 6-1.1992 10.801 0 16.801 3.6016 9.6016 6 15.602 15.602 16.801 28.801 1.1992 9.6016 3.6016 19.199 8.3984 30 1.1992 2.3984 2.3984 4.8008 3.6016 6 2.3984 1.1992 3.6016 2.3984 7.1992 3.6016 1.1992 0 2.3984 0 3.6016-1.1992v-1.1992-36c0-7.1992 2.3984-13.199 4.8008-20.398 2.3984-6 6-9.6016 9.6016-10.801 6-2.3984 10.801-2.3984 16.801 2.3984 6 3.6016 8.3984 9.6016 8.3984 19.199 0 24 2.3984 46.801 10.801 69.602 4.8008 15.602 8.3984 25.199 8.3984 31.199 1.1992 13.199 0 25.199-3.6016 38.398-3.6016 9.6016-6 20.398-7.1992 31.199-2.3984 10.801-3.6016 20.398-3.6016 31.199 0 25.199 1.1992 52.801 4.8008 84 4.8008 38.398 13.199 72 26.398 102 0 1.1992 1.1992 1.1992 1.1992 1.1992v-1.1992c-12-49.199-19.199-99.602-21.602-151.2-1.1992-26.398 0-46.801 4.8008-62.398 4.8008-15.602 8.3984-32.398 13.199-48 2.3984-8.3984 2.3984-16.801 2.3984-25.199 0-6-2.3984-14.398-4.8008-25.199-7.1992-22.801-12-42-14.398-57.602-3.6016-20.398-8.3984-37.199-12-50.398-9.6016-30-13.199-60-10.801-91.199 0 0 1.1992-9.6016 3.6016-26.398 1.1992-8.3984 2.3984-19.199 2.3984-32.398 1.1992-20.398-6-38.398-19.199-54-3.6016-3.6016-7.1992-8.3984-10.801-12-4.8008-4.8008-7.1992-9.6016-8.3984-13.199-2.3984-12 1.1992-20.398 12-25.199 6-2.3984 10.801-3.6016 16.801-1.1992 6 1.1992 10.801 4.8008 15.602 8.3984 30 28.801 45.602 63.602 44.398 105.6v6 6c-1.1992 27.602-1.1992 55.199 0 82.801 1.1992 16.801 4.8008 32.398 10.801 46.801-3.6094-4.8203-2.4102-3.6211-1.2109-4.8203zm-187.2 452.4c14.398 10.801 22.801 9.6016 26.398-3.6016 1.1992-4.8008 1.1992-12 0-20.398-6-39.602-18-79.199-37.199-117.6-1.1992-2.3984-2.3984-2.3984-3.6016 0-3.6016 10.801-7.1992 22.801-8.3984 33.602-2.3984 13.199-3.6016 25.199-4.8008 33.602-1.1992 22.801 4.8008 44.398 18 63.602 2.4023 3.5977 6 7.1953 9.6016 10.797z"/>
</svg>
