<?xml version="1.0" encoding="UTF-8"?>
<svg width="1200pt" height="1200pt" version="1.1" viewBox="0 0 1200 1200" xmlns="http://www.w3.org/2000/svg">
 <path d="m922.8 608.4c-1.1992-3.6016-2.3984-6-4.8008-9.6016-20.398-27.602-48 3.6016-54 25.199-8.3984 27.602-1.1992 57.602-10.801 85.199-3.6016 12-13.199 30-25.199 33.602-13.199 3.6016-30-4.8008-37.199-15.602-22.801-31.199-9.6016-67.199 12-97.199 24-33.602 52.801-64.801 73.199-100.8 27.602-48 43.199-100.8 49.199-154.8 2.3984-24 15.602-138-37.199-110.4-12 6-18 15.602-20.398 26.398-4.8008 28.801-7.1992 64.801-7.1992 106.8 0 12-3.6016 28.801-9.6016 38.398-3.6016 4.8008-9.6016 9.6016-16.801 8.3984-24-3.6016-18-75.602-19.199-91.199-1.1992-13.199-1.1992-27.602-2.3984-40.801 0-8.3984-2.3984-16.801-9.6016-22.801-8.3984-7.1992-21.602-6-30 0-16.801 12-16.801 30-16.801 48 0 21.602-1.1992 44.398-1.1992 66 0 25.199 6 48 18 69.602 10.801 20.398 9.6016 54 4.8008 76.801-4.8008 21.602-15.602 48-30 64.801-12 14.398-34.801 22.801-51.602 9.6016-10.801-9.6016-15.602-24-15.602-38.398 0-24 12-49.199 22.801-69.602 4.8008-9.6016 9.6016-20.398 13.199-32.398 2.3984-6 1.1992-13.199-2.3984-18-37.199-49.199-86.398 97.199-87.602 116.4-4.8008 46.801 10.801 86.398 48 116.4 30 24 55.199 52.801 60 92.398 2.3984 19.199-6 45.602-20.398 57.602-25.199 20.398-40.801-15.602-50.398-32.398-16.801-30-43.199-55.199-66-79.199-49.199-50.398-60-108-31.199-172.8 4.8008-12 14.398-31.199 30-57.602 30-55.199 54-114 70.801-175.2 8.3984-31.199 14.398-62.398 19.199-94.801 3.6016-30 10.801-64.801 7.1992-94.801-1.1992-8.3984-4.8008-16.801-13.199-20.398-8.3984-3.6016-20.398-2.3984-27.602 3.6016-15.602 12-15.602 32.398-18 50.398-3.6016 30-2.3984 63.602-15.602 91.199-21.602 43.199-48 10.801-54-22.801-3.6016-21.602-1.1992-44.398 0-66 1.1992-19.199 1.1992-46.801 0-80.398 0-13.199-1.1992-27.602-15.602-32.398-8.3984-2.3984-18 0-25.199 4.8008-19.199 14.398-19.199 38.398-21.602 60-2.3984 21.602-3.6016 42-2.3984 63.602-6 42 1.1992 84 22.801 124.8 19.199 37.199 27.602 79.199 24 126-1.1992 20.398-27.602 90-56.398 69.602-16.801-10.801-16.801-45.602-18-63.602 0-21.602 0-45.602-3.6016-67.199-3.6016-21.602-7.1992-43.199-34.801-32.398-16.801 8.3984-25.199 21.602-25.199 39.602 0 14.398 0 44.398 2.3984 91.199 1.1992 25.199 7.1992 55.199 18 87.602 8.3984 27.602 19.199 66 3.6016 92.398-18 32.398-58.801 6-75.602-14.398-16.801-19.199-20.398-45.602-18-69.602 3.6016-45.602 14.398-94.801 12-140.4-1.1992-10.801-6-22.801-16.801-25.199-7.1992-1.1992-14.398 1.1992-20.398 4.8008-19.199 13.199-19.199 36-22.801 56.398-3.6016 25.199-7.1992 50.398-9.6016 75.602-3.6016 36-4.8008 60-3.6016 70.801 2.3984 25.199 13.199 48 31.199 67.199 10.801 12 26.398 22.801 45.602 32.398 18 9.6016 36 16.801 52.801 21.602 58.801 15.602 110.4 37.199 154.8 66 34.801 22.801 60 62.398 55.199 105.6-1.1992 7.1992-2.3984 13.199-6 19.199-12 16.801-38.398 6-50.398-6-21.602-21.602-38.398-46.801-49.199-74.398-4.8008-12-8.3984-18-12-21.602-7.1992-7.1992-18-7.1992-28.801 1.1992-13.199 12-15.602 27.602-9.6016 46.801 9.6016 30 26.398 55.199 49.199 73.199 12 9.6016 26.398 19.199 39.602 26.398 12 7.1992 27.602 9.6016 34.801 22.801 4.8008 8.3984 4.8008 19.199 3.6016 30-3.6016 28.801-3.6016 57.602-6 85.199-1.1992 4.8008-1.1992 10.801 1.1992 14.398 8.3984 13.199 70.801 10.801 76.801-2.3984 2.3984-4.8008 0-16.801 0-21.602 0-39.602 3.6016-75.602 24-110.4 21.602-36 46.801-68.398 75.602-97.199s57.602-57.602 86.398-85.199c20.398-20.398 34.801-36 43.199-48 30-40.801 36-79.199 38.398-128.4-2.3984-8.4062-3.5977-18.008-5.9961-27.609z"/>
</svg>
