<?xml version="1.0" encoding="UTF-8"?>
<svg width="1200pt" height="1200pt" version="1.1" viewBox="0 0 1200 1200" xmlns="http://www.w3.org/2000/svg">
 <path d="m811.2 213.6c-4.8008 10.801-13.199 20.398-22.801 27.602-10.801 8.3984-21.602 14.398-33.602 19.199-4.8008 2.3984-8.3984 2.3984-12 2.3984-4.8008-1.1992-8.3984-3.6016-9.6016-8.3984-1.1992-4.8008 0-9.6016 2.3984-14.398 3.6016-7.1992 10.801-13.199 19.199-18 10.801-6 16.801-14.398 16.801-26.398 0-9.6016-2.3984-18-8.3984-26.398-4.8008-7.1992-12-13.199-21.602-15.602-8.3984-3.6016-16.801-3.6016-25.199-1.1992-14.398 3.6016-25.199 12-34.801 26.398-9.6016 16.801-14.398 32.398-14.398 50.398 0 3.6016 1.1992 8.3984 3.6016 13.199 2.3984 4.8008 3.6016 8.3984 4.8008 13.199 2.3984 4.8008 2.3984 10.801 2.3984 16.801-1.1992 22.801-1.1992 46.801 0 69.602 0 3.6016 1.1992 6 3.6016 8.3984 8.3984 8.3984 14.398 19.199 18 31.199 1.1992 3.6016 1.1992 9.6016 2.3984 15.602 0 4.8008 0 10.801 1.1992 15.602 0 9.6016 1.1992 16.801 3.6016 21.602 3.6016 7.1992 9.6016 12 18 14.398 21.602 4.8008 34.801 8.3984 40.801 10.801 25.199 12 38.398 30 39.602 54 0 12-3.6016 26.398-12 45.602-7.1992 18-15.602 36-25.199 51.602-2.3984 4.8008-7.1992 7.1992-12 8.3984-8.3984 1.1992-13.199-2.3984-15.602-9.6016-1.1992-4.8008-1.1992-10.801 1.1992-15.602 7.1992-16.801 14.398-33.602 20.398-51.602 3.6016-8.3984 4.8008-16.801 4.8008-24-1.1992-18-8.3984-27.602-22.801-31.199-10.801-2.3984-20.398-1.1992-28.801 4.8008-9.6016 6-14.398 15.602-16.801 28.801-2.3984 14.398-3.6016 24-4.8008 27.602-2.3984 8.3984-7.1992 12-15.602 13.199-4.8008 0-9.6016-1.1992-12-3.6016-3.6016-3.6016-4.8008-8.3984-3.6016-14.398 1.1992-3.6016 1.1992-12 0-24 0-8.3984-2.3984-15.602-4.8008-19.199-4.8008-6-10.801-8.3984-18-8.3984-4.8008 0-8.3984 1.1992-13.199 3.6016-4.8008 2.3984-8.3984 6-10.801 8.3984-16.801 27.602-15.602 52.801 3.6016 79.199 14.398 19.199 30 37.199 46.801 55.199 9.6016 10.801 15.602 20.398 18 28.801 3.6016 12 3.6016 25.199 0 39.602-2.3984 9.6016-3.6016 14.398-3.6016 14.398-6 27.602-12 51.602-18 73.199-1.1992 6-4.8008 10.801-9.6016 13.199-4.8008 3.6016-9.6016 3.6016-14.398 3.6016-6-1.1992-9.6016-6-10.801-13.199 0-4.8008 0-9.6016 1.1992-13.199 7.1992-28.801 12-58.801 18-88.801 2.3984-14.398 0-27.602-8.3984-38.398-6-8.3984-20.398-25.199-44.398-52.801-19.199-21.602-27.602-45.602-26.398-73.199 1.1992-33.602 16.801-58.801 46.801-73.199 8.3984-3.6016 14.398-7.1992 16.801-9.6016 13.199-8.3984 20.398-21.602 21.602-39.602 0-13.199-1.1992-24-7.1992-32.398-4.8008-9.6016-8.3984-15.602-8.3984-15.602-2.3984-7.1992-3.6016-15.602-3.6016-22.801 1.1992-22.801 1.1992-42 0-58.801 0-4.8008-1.1992-8.3984-2.3984-10.801-1.1992-3.6016-4.8008-7.1992-7.1992-8.3984-10.801-7.1992-21.602-7.1992-32.398-2.3984-4.8008 2.3984-9.6016 6-12 10.801-2.3984 4.8008-4.8008 10.801-6 15.602-1.1992 8.3984-4.8008 13.199-10.801 15.602-9.6016 2.3984-15.602-1.1992-18-10.801-2.3984-9.6016-1.1992-19.199 3.6016-31.199 9.6016-21.602 26.398-33.602 49.199-37.199 18-2.3984 27.602-13.199 28.801-31.199 1.1992-16.801-1.1992-31.199-9.6016-43.199-7.1992-10.801-16.801-18-28.801-21.602-13.199-3.6016-26.398 0-38.398 8.3984-12 8.3984-19.199 19.199-22.801 31.199-2.3984 9.6016-4.8008 26.398-9.6016 52.801-1.1992 4.8008-4.8008 12-10.801 22.801-4.8008 8.3984-7.1992 14.398-8.3984 19.199-1.1992 6-2.3984 13.199-1.1992 21.602 0 18 1.1992 32.398 3.6016 40.801 1.1992 7.1992 4.8008 12 9.6016 13.199 3.6016 1.1992 10.801 6 24 13.199 21.602 12 30 30 25.199 55.199-3.6016 16.801-7.1992 32.398-12 49.199-2.3984 7.1992-4.8008 12-10.801 14.398-9.6016 4.8008-16.801 3.6016-20.398-3.6016-1.1992-2.3984-2.3984-6-2.3984-10.801s0-9.6016 1.1992-10.801c3.6016-12 4.8008-21.602 4.8008-28.801 1.1992-16.801-4.8008-27.602-18-34.801-4.8008-2.3984-10.801-4.8008-16.801-4.8008s-12 0-18 2.3984c-22.801 8.3984-34.801 25.199-36 49.199v19.199c0 7.1992 0 12 2.3984 15.602 2.3984 4.8008 4.8008 9.6016 8.3984 14.398 6 6 10.801 14.398 14.398 22.801 0 0 1.1992 6 4.8008 19.199 3.6016 14.398 12 25.199 24 33.602 24 15.602 37.199 37.199 39.602 64.801 1.1992 12 2.3984 20.398 3.6016 22.801 3.6016 13.199 9.6016 24 18 34.801 4.8008 6 7.1992 8.3984 7.1992 9.6016 3.6016 4.8008 6 8.3984 9.6016 13.199 4.8008 7.1992 8.3984 14.398 10.801 19.199 3.6016 8.3984 4.8008 18 3.6016 27.602 0 1.1992-1.1992 10.801-4.8008 27.602-2.3984 18-7.1992 34.801-10.801 51.602-1.1992 6-3.6016 10.801-6 13.199-3.6016 3.6016-8.3984 4.8008-15.602 3.6016-9.6016-2.3984-13.199-9.6016-12-20.398 1.1992-10.801 3.6016-22.801 6-33.602 3.6016-16.801 4.8008-33.602 3.6016-50.398 0-7.1992-3.6016-13.199-7.1992-19.199-7.1992-9.6016-14.398-19.199-21.602-27.602-7.1992-9.6016-13.199-21.602-16.801-33.602-3.6016-10.801-6-21.602-9.6016-32.398-3.6016-13.199-8.3984-22.801-13.199-28.801s-12-12-19.199-15.602c-10.801-6-16.801-9.6016-18-9.6016-7.1992-6-10.801-13.199-13.199-22.801-2.3984-10.801-3.6016-16.801-4.8008-20.398-6-18-19.199-25.199-38.398-21.602-16.801 3.6016-28.801 13.199-34.801 27.602-3.6016 8.3984-4.8008 18-3.6016 28.801 1.1992 9.6016 3.6016 19.199 9.6016 28.801 4.8008 7.1992 9.6016 12 14.398 12 7.1992 1.1992 13.199 2.3984 20.398 3.6016 22.801 6 37.199 20.398 43.199 42 7.1992 24 13.199 55.199 19.199 94.801 2.3984 14.398-2.3984 22.801-14.398 25.199-6 1.1992-10.801 0-14.398-3.6016-2.3984-2.3984-4.8008-6-6-12-1.1992-4.8008-2.3984-8.3984-2.3984-13.199-3.6016-24-7.1992-49.199-13.199-73.199-1.1992-6-3.6016-12-6-18-3.6016-9.6016-10.801-14.398-21.602-15.602-6.0039-2.4102-13.203-0.007813-18.004 7.1914-1.1992 2.3984-2.3984 6-2.3984 9.6016 0 3.6016-1.1992 7.1992-1.1992 10.801-1.1992 6-2.3984 9.6016-6 13.199-6 6-12 6-19.199 0-3.6016-2.3984-6-7.1992-7.1992-12-1.1992-4.8008-2.3984-9.6016-2.3984-14.398-1.1992-9.6016-3.6016-26.398-7.1992-48-2.3984-14.398-4.8008-30-4.8008-44.398 0-18 2.3984-32.398 8.3984-43.199 8.3984-15.602 20.398-27.602 37.199-34.801 2.3984-1.1992 8.3984-2.3984 16.801-6 6-1.1992 12-3.6016 16.801-6 3.6016-1.1992 4.8008-3.6016 6-8.3984 1.1992-10.801 2.3984-21.602 3.6016-32.398 2.3984-13.199 4.8008-24 8.3984-31.199 7.1992-16.801 19.199-30 36-39.602 6-3.6016 9.6016-7.1992 14.398-13.199 3.6016-4.8008 4.8008-9.6016 6-16.801 1.1992-15.602 1.1992-31.199 0-46.801-1.1992-7.1992 0-13.199 0-18 1.1992-6 3.6016-12 6-16.801 4.8008-10.801 7.1992-18 8.3984-20.398 1.1992-8.3984 0-16.801-4.8008-25.199-6-10.801-15.602-18-26.398-21.602-10.801-2.3984-20.398-2.3984-31.199 2.3984-16.801 7.1992-27.602 20.398-31.199 40.801-1.1992 4.8008 0 9.6016 2.3984 14.398 2.3984 4.8008 6 9.6016 9.6016 15.602 2.3984 3.6016 3.6016 8.3984 4.8008 12 1.1992 18 2.3984 37.199 1.1992 55.199 0 6-1.1992 10.801-3.6016 13.199-3.6016 4.8008-7.1992 7.1992-14.398 7.1992-3.6016 0-7.1992-1.1992-9.6016-3.6016-3.6016-2.3984-4.8008-6-4.8008-9.6016 0-9.6016-1.1992-20.398-1.1992-30 0-10.801-2.3984-18-4.8008-22.801-7.1992-12-18-16.801-33.602-14.398-22.801 2.3984-36 16.801-39.602 40.801-2.3984 15.602 2.3984 27.602 13.199 34.801 12 8.3984 19.199 18 22.801 30 2.3984 7.1992 1.1992 19.199-1.1992 34.801-2.3984 14.398-4.8008 25.199-7.1992 34.801-1.1992 6-4.8008 10.801-9.6016 14.398-4.8008 3.6016-9.6016 4.8008-15.602 2.3984-7.1992-2.3984-10.801-8.3984-8.3984-18 3.6016-18 4.8008-30 6-34.801 1.1992-12-1.1992-22.801-6-32.398-6-9.6016-13.199-15.602-22.801-19.199-10.801-3.6016-21.602-3.6016-32.398 2.3984-16.801 8.3984-25.199 24-26.398 44.398 0 7.1992 1.1992 13.199 4.8008 20.398 6 10.801 12 21.602 16.801 32.398 6 12 10.801 25.199 12 38.398 1.1992 6 0 10.801-2.3984 15.602-3.6016 6-8.3984 8.3984-15.602 7.1992-4.8008-1.1992-8.3984-2.3984-10.801-7.1992-2.3984-3.6016-4.8008-8.3984-4.8008-12-2.3984-10.801-3.6016-16.801-3.6016-19.199-2.3984-13.199-8.3984-22.801-19.199-28.801-7.1992-4.8008-15.602-4.8008-22.801-2.3984-12 4.8008-19.199 13.199-21.602 26.398-2.3984 10.801-2.3984 22.801-1.1992 33.602 1.1992 8.3984 4.8008 15.602 8.3984 20.398 4.8008 6 10.801 10.801 18 14.398 6 2.3984 12 6 18 8.3984 28.801 10.801 45.602 32.398 51.602 62.398 1.1992 4.8008 0 9.6016-2.3984 13.199-2.3984 3.6016-6 6-10.801 7.1992-8.3984 2.3984-14.398-1.1992-18-10.801-1.1992-2.3984-3.6016-8.3984-6-16.801-3.6016-12-10.801-20.398-21.602-22.801-9.6016-3.6016-19.199-2.3984-28.801 2.3984-8.3984 4.8008-14.398 12-18 21.602-4.7969 10.812-4.7969 19.211-1.1953 28.812 2.3984 9.6016 8.3984 16.801 15.602 24 26.398 24 57.602 34.801 92.398 30 21.602-2.3984 39.602 2.3984 54 16.801 0 0 6 7.1992 18 21.602 8.3984 10.801 18 18 27.602 22.801 15.602 8.3984 27.602 15.602 33.602 24 6 7.1992 12 16.801 16.801 28.801 6 14.398 10.801 22.801 14.398 27.602 9.6016 12 21.602 21.602 36 28.801 12 6 24 10.801 36 14.398 22.801 7.1992 43.199 19.199 61.199 33.602 16.801 13.199 26.398 28.801 30 44.398 2.3984 8.3984 3.6016 21.602 4.8008 37.199 1.1992 20.398 2.3984 32.398 4.8008 37.199 6 14.398 18 20.398 37.199 20.398 14.398 0 24-6 30-15.602 3.6016-6 4.8008-15.602 6-28.801 0-9.6016 0-19.199 1.1992-28.801 0-12 1.1992-21.602 3.6016-27.602 6-18 16.801-33.602 32.398-44.398 14.398-9.6016 27.602-19.199 43.199-27.602 12-7.1992 19.199-16.801 21.602-30 1.1992-7.1992 2.3984-14.398 2.3984-25.199 1.1992-12 1.1992-20.398 3.6016-25.199 3.6016-12 8.3984-22.801 15.602-33.602 3.6016-4.8008 6-7.1992 6-7.1992 8.3984-12 16.801-24 25.199-34.801 14.398-21.602 22.801-32.398 25.199-34.801 12-13.199 27.602-22.801 45.602-27.602 7.1992-2.3984 18-3.6016 31.199-3.6016 14.398 0 24-1.1992 31.199-2.3984 27.602-3.6016 46.801-18 55.199-43.199 1.1992-3.6016 2.3984-10.801 3.6016-20.398 1.1992-9.6016 2.3984-16.801 4.8008-20.398 4.8008-13.199 13.199-25.199 25.199-34.801 2.3984-2.3984 10.801-9.6016 24-21.602 14.398-13.199 21.602-28.801 21.602-46.801 0-10.801-2.3984-20.398-8.3984-27.602-6-8.3984-15.602-13.199-26.398-15.602-8.3984-1.1992-16.801-1.1992-22.801 0-13.199 3.6016-25.199 9.6016-38.398 16.801-8.3984 6-15.602 10.801-19.199 14.398-6 6-10.801 13.199-13.199 20.398-4.8008 18-10.801 45.602-16.801 81.602-1.1992 9.6016-3.6016 16.801-4.8008 20.398-3.6016 7.1992-9.6016 12-16.801 12-6 1.1992-10.801-1.1992-13.199-4.8008-3.6016-4.8008-4.8008-9.6016-3.6016-16.801 3.6016-21.602 8.3984-43.199 10.801-66 2.3984-18 6-31.199 9.6016-42 8.3984-21.602 22.801-38.398 44.398-50.398 6-3.6016 20.398-10.801 42-21.602 7.1992-3.6016 12-7.1992 14.398-9.6016 3.6016-4.8008 4.8008-10.801 6-16.801 1.1992-16.801 1.1992-28.801 1.1992-33.602-1.1992-16.801-9.6016-28.801-22.801-36s-26.398-7.1992-39.602 0c-19.199 9.6016-28.801 25.199-28.801 45.602v9.6016c0 8.3984-1.1992 13.199-2.3984 16.801-4.8008 10.801-12 15.602-24 15.602-3.6016 0-6-1.1992-8.3984-4.8008-2.3984-3.6016-3.6016-7.1992-3.6016-10.801-1.1992-6-2.3984-9.6016-2.3984-10.801-6-13.199-16.801-19.199-33.602-14.398-13.199 2.3984-20.398 10.801-21.602 22.801-1.1992 9.6016 0 22.801 3.6016 37.199 2.3984 9.6016 2.3984 18 2.3984 26.398 0 4.8008-1.1992 7.1992-3.6016 10.801-2.3984 3.6016-4.8008 6-9.6016 7.1992-12 3.6016-19.199-1.1992-21.602-13.199-3.6016-19.199-6-37.199-8.3984-56.398-4.8008-20.391-4.8008-29.988-4.8008-33.59 1.1992-10.801 6-20.398 15.602-27.602 18-14.398 38.398-20.398 63.602-20.398 4.8008 0 8.3984-1.1992 12-4.8008 2.3984-2.3984 6-6 9.6016-10.801 9.6016-12 20.398-22.801 34.801-30 38.398-16.801 74.398-13.199 106.8 12 14.398 10.801 25.199 26.398 31.199 44.398 2.3984 8.3984 3.6016 19.199 4.8008 34.801 0 12 1.1992 22.801 1.1992 34.801 0 3.6016 1.1992 7.1992 4.8008 9.6016 4.8008 4.8008 10.801 8.3984 16.801 13.199 7.1992 6 13.199 10.801 16.801 14.398 10.801 12 16.801 25.199 18 40.801 1.1992 13.199 1.1992 27.602-2.3984 43.199-4.8008 24-16.801 43.199-37.199 58.801-25.199 19.199-37.199 44.398-34.801 75.602 0 6 2.3984 10.801 4.8008 13.199 3.6016 3.6016 7.1992 7.1992 13.199 10.801 32.398 21.602 46.801 51.602 44.398 87.602-1.1992 15.602-6 30-14.398 43.199s-19.199 25.199-32.398 34.801c-3.6016 2.3984-7.1992 4.8008-10.801 8.3984 0 0-2.3984 2.3984-8.3984 6-12 8.3984-18 19.199-19.199 32.398-3.6016 55.199-31.199 88.801-82.801 102-7.1992 2.3984-20.398 2.3984-39.602 2.3984-13.199 0-22.801 4.8008-30 15.602-3.6016 6-4.8008 8.3984-4.8008 8.3984-2.3984 3.6016-4.8008 7.1992-7.1992 10.801-13.199 19.199-30 30-50.398 34.801-6 1.1992-20.398 1.1992-43.199 1.1992-16.801 0-32.398 0-43.199 2.3984-3.6016 0-7.1992 2.3984-12 6-2.3984 2.3984-4.8008 4.8008-8.3984 9.6016-13.215 10.801-24.016 20.402-37.215 26.402-37.199 16.801-73.199 16.801-109.2-1.1992-7.1992-3.6016-14.398-8.3984-20.398-15.602 0 0-3.6016-4.8008-9.6016-14.398-3.6016-4.8008-8.3984-9.6016-13.199-12-3.6016-2.3984-9.6016-3.6016-16.801-3.6016-21.602-1.1992-39.602-1.1992-54 0-14.398 1.1992-27.602-1.1992-38.398-6-10.801-4.8008-20.398-12-30-24-7.1992-9.6016-14.398-20.398-21.602-32.398-1.1992-3.6016-4.8008-6-8.3984-7.1992-2.3984-1.1992-6-1.1992-9.6016-1.1992-16.801 0-30-1.1992-38.398-2.3984-33.602-6-54-26.398-62.398-60-1.1992-2.3984-1.1992-9.6016-3.6016-20.398-1.1992-10.801-8.3984-18-19.199-22.801-44.398-19.199-68.398-52.801-72-99.602 0-8.3984-1.1992-14.398-2.3984-18-2.3984-6-7.1992-10.801-13.199-13.199-33.602-19.199-52.801-48-56.398-87.602-2.3984-22.801 1.1992-43.199 12-62.398 3.6016-6 6-10.801 7.1992-14.398 1.1992-4.8008 2.3984-9.6016 2.3984-15.602 0-18 0-36-1.1992-52.801-1.1992-43.199 18-72 58.801-86.398 2.3984-1.1992 3.6016-2.3984 3.6016-4.8008 1.1992-7.1992 2.3984-14.398 3.6016-21.602 8.3984-36 31.199-57.602 66-64.801 3.6016-1.1992 8.3984-1.1992 14.398-1.1992 4.8008 0 9.6016 0 14.398-1.1992 3.6016 0 6-2.3984 7.1992-7.1992 3.6016-32.398 19.199-52.801 48-63.602 9.6016-3.6016 19.199-4.8008 30-6 4.8008 0 8.3984-1.1992 9.6016-4.8008 1.1992-1.1992 2.3984-4.8008 3.6016-9.6016 3.6016-18 10.801-33.602 21.602-46.801 8.3984-10.801 20.398-19.199 32.398-24s24-6 38.398-4.8008c19.199 1.1992 37.199 8.3984 52.801 20.398h2.3984c3.6016-8.3984 8.3984-16.801 12-25.199 15.602-28.801 39.602-44.398 72-48 43.195-5.9961 75.594 9.6016 99.594 44.402 1.1992 1.1992 2.3984 1.1992 2.3984 1.1992 27.602-16.801 55.199-21.602 84-14.398 16.801 3.6016 30 10.801 42 20.398 12 10.801 21.602 24 26.398 40.801 3.6016 13.199 2.4023 30-3.5977 45.602zm-126 752.4c7.1992 3.6016 14.398 6 21.602 6h21.602c27.602-1.1992 50.398-13.199 68.398-36 15.602-19.199 33.602-32.398 55.199-38.398 4.8008-1.1992 14.398-2.3984 28.801-3.6016 12-1.1992 21.602-2.3984 28.801-4.8008 13.199-4.8008 24-13.199 31.199-26.398 2.3984-4.8008 4.8008-12 7.1992-21.602 1.1992-7.1992 2.3984-14.398 3.6016-22.801 1.1992-10.801 6-20.398 13.199-28.801 12-14.398 27.602-25.199 45.602-33.602 19.199-9.6016 30-25.199 31.199-48 1.1992-13.199-2.3984-25.199-9.6016-36-8.3984-10.801-18-16.801-31.199-18-7.1992-1.1992-15.602 0-24 3.6016-8.3984 3.6016-15.602 8.3984-20.398 14.398-6 7.1992-9.6016 16.801-9.6016 28.801 0 25.199-9.6016 46.801-31.199 62.398-8.3984 7.1992-18 13.199-26.398 19.199-14.398 9.6016-22.801 21.602-25.199 38.398-1.1992 8.3984-2.3984 13.199-4.8008 15.602-4.8008 6-10.801 8.3984-18 6-3.6016-1.1992-6-2.3984-7.1992-6-1.1992-3.6016-2.3984-6-2.3984-9.6016 0 0 0-4.8008 1.1992-14.398 2.3984-22.801 13.199-42 32.398-55.199 4.8008-3.6016 10.801-7.1992 15.602-10.801 18-12 25.199-27.602 19.199-49.199-3.6016-15.602-14.398-24-30-24-14.398 0-26.398 3.6016-36 14.398-6 6-13.199 15.602-21.602 27.602-9.6016 14.398-19.199 30-28.801 44.398-7.1992 10.801-10.801 21.602-12 30 0 10.801-1.1992 20.398-2.3984 31.199-1.1992 13.199-3.6016 22.801-6 30-7.1992 15.602-18 27.602-34.801 36-6 3.6016-9.6016 4.8008-9.6016 4.8008-8.3984 4.8008-18 10.801-26.398 15.602-16.801 10.801-24 26.398-19.199 45.602 4.7969 6.0039 7.1953 9.6016 11.996 13.203zm-470.4-182.4c6 4.8008 12 8.3984 19.199 13.199 8.3984 6 14.398 10.801 18 14.398 14.398 14.398 21.602 33.602 22.801 54 1.1992 8.3984 3.6016 15.602 9.6016 20.398 3.6016 2.3984 8.3984 3.6016 14.398 6 7.1992 1.1992 13.199 2.3984 15.602 2.3984 27.602 1.1992 50.398 12 68.398 32.398 6 7.1992 12 14.398 18 20.398 13.199 15.602 30 24 50.398 25.199h20.398c7.1992-1.1992 13.199-3.6016 19.199-8.3984 4.8008-4.8008 8.3984-10.801 8.3984-18 1.1992-7.1992-1.1992-14.398-4.8008-20.398-6-9.6016-14.398-18-25.199-24-10.801-6-22.801-10.801-34.801-14.398-12-3.6016-24-7.1992-36-12-26.398-10.801-46.801-27.602-60-51.602 0 0-2.3984-4.8008-7.1992-14.398-6-13.199-15.602-25.199-27.602-34.801-1.1992-1.1992-6-4.8008-15.602-9.6016-4.8008-3.6016-9.6016-7.1992-14.398-10.801-3.6016-2.3984-6-7.1992-9.6016-12-2.3984-4.8008-4.8008-8.3984-7.1992-13.199-4.8008-8.3984-9.6016-14.398-14.398-16.801-6-4.8008-14.398-6-22.801-6-16.801 1.1992-27.602 9.6016-32.398 25.199-3.6016 13.199-3.6016 24 2.3984 33.602 6.0078 3.6055 13.207 10.805 25.207 19.207z"/>
</svg>
