<?xml version="1.0" encoding="UTF-8"?>
<svg width="1200pt" height="1200pt" version="1.1" viewBox="0 0 1200 1200" xmlns="http://www.w3.org/2000/svg">
 <path d="m411.6 882c1.1992-4.8008 0-8.3984-3.6016-13.199-8.3984-12-20.398-20.398-34.801-25.199-28.801-8.3984-56.398-16.801-85.199-25.199-16.801-4.8008-30-9.6016-38.398-14.398-10.801-6-20.398-15.602-27.602-30-3.6016-6-7.1992-15.602-10.801-26.398-4.8008-13.199-8.3984-21.602-10.801-26.398-14.398-28.801-34.801-51.602-61.199-70.801-7.1992-4.8008-18-13.199-32.398-26.398-9.6016-8.3984-14.398-16.801-16.801-27.602-2.3984-10.801 0-20.398 4.8008-30 8.3984-14.398 21.602-21.602 42-19.199 31.199 2.3984 58.801 16.801 80.398 43.199 18 20.398 32.398 42 43.199 62.398 6 12 12 26.398 16.801 44.398 3.6016 15.602 7.1992 31.199 10.801 45.602 2.3984 10.801 7.1992 20.398 14.398 28.801 4.8008 6 10.801 9.6016 15.602 9.6016 6 1.1992 10.801 0 14.398-3.6016 3.6016-2.3984 4.8008-7.1992 4.8008-12 0-16.801-3.6016-33.602-10.801-51.602-9.6016-24-15.602-44.398-16.801-62.398-1.1992-16.801-2.3984-33.602-3.6016-50.398-1.1992-15.602-8.3984-27.602-20.398-36-9.5977-7.207-21.598-13.207-37.199-16.809-27.602-7.1992-54-18-78-31.199-3.6016-2.3984-8.3984-4.8008-12-8.3984-3.6016-3.6016-6-7.1992-7.1992-12-2.3984-9.6016-2.3984-16.801 2.3984-25.199 3.6016-7.1992 10.801-10.801 18-13.199 12-2.3984 22.801 0 32.398 9.6016l18 18c4.8008 4.8008 9.6016 8.3984 16.801 12 20.398 9.6016 40.801 16.801 61.199 22.801h3.6016c8.3984-3.6016 10.801-9.6016 9.6016-19.199-1.1992-6-4.8008-12-10.801-16.801-15.602-12-30-25.199-43.199-38.398-31.199-31.199-51.602-69.602-57.602-112.8-1.1992-7.1992-1.1992-15.602 0-22.801 1.1992-9.6016 6-18 13.199-22.801 7.1992-4.8008 14.398-7.1992 24-6 10.801 1.1992 19.199 8.3984 25.199 19.199 7.1992 14.398 13.199 26.398 16.801 37.199 7.1992 24 19.199 49.199 34.801 78 8.3984 15.602 19.199 27.602 32.398 37.199 12 8.3984 19.199 13.199 20.398 14.398 18 16.801 28.801 38.398 30 64.801 1.1992 10.801 0 22.801-1.1992 32.398-1.1992 6-2.3984 15.602-7.1992 32.398-3.6016 15.602-7.1992 32.398-9.6016 48-1.1992 9.6016 1.1992 16.801 8.3984 20.398 3.6016 2.3984 8.3984 2.3984 14.398 0 6-2.3984 9.6016-3.6016 13.199-7.1992 43.199-33.602 60-78 49.199-133.2-3.6016-21.602-14.398-39.602-31.199-54-28.801-24-55.199-52.801-80.398-85.199-6-8.3984-12-15.602-15.602-24-4.8008-9.6016-7.1992-18-6-25.199 1.1992-14.398 10.801-24 26.398-28.801 15.602-4.8008 30-1.1992 43.199 9.6016 30 24 49.199 54 60 91.199 2.3984 7.1992 4.8008 15.602 7.1992 22.801 2.3984 6 3.6016 10.801 6 14.398 2.3984 4.8008 6 8.3984 10.801 9.6016 6 1.1992 10.801 0 14.398-4.8008 2.3984-3.6016 3.6016-7.1992 4.8008-13.199 1.1992-20.398-3.6016-38.398-12-56.398-6-12-13.199-22.801-21.602-33.602-25.199-32.398-46.801-68.398-64.801-105.6-9.6016-20.398-15.602-40.801-19.199-62.398-2.3984-16.801 2.3984-27.602 15.602-31.199 7.1992-2.3984 15.602-2.3984 22.801 1.1992 7.1992 3.6016 14.398 9.6016 18 16.801 14.398 22.801 32.398 55.199 54 94.801 0 0 4.8008 8.3984 14.398 26.398 13.199 22.801 21.602 44.398 27.602 63.602 4.8008 18 10.801 33.602 16.801 46.801 2.3984 4.8008 4.8008 7.1992 7.1992 8.3984 3.6016 2.3984 8.3984 1.1992 13.199-2.3984 6-4.8008 10.801-10.801 12-18 6-22.801 4.8008-45.602 0-68.398-1.1992-7.1992-7.1992-19.199-16.801-38.398-8.3984-15.602-14.398-28.801-16.801-37.199-14.398-39.602-19.199-81.602-14.398-123.6 1.1992-15.602 2.3984-24 2.3984-25.199 1.1992-9.6016 3.6016-16.801 7.1992-24 3.6016-6 8.3984-10.801 14.398-14.398 6-2.3984 13.199-3.6016 19.199-1.1992 7.1992 2.3984 12 7.1992 15.602 15.602 13.199 28.801 21.602 57.602 24 87.602 3.6016 33.602 7.1992 67.199 10.801 100.8 2.3984 21.602 7.1992 42 13.199 61.199 2.3984 7.1992 6 12 9.6016 14.398 4.8008 3.6016 9.6016 2.3984 15.602-1.1992 3.6016-2.3984 6-6 8.3984-10.801 8.3984-18 10.801-37.199 7.1992-56.398-3.6016-20.398-7.1992-36-10.801-45.602-3.6016-12-4.8008-24-3.6016-36 3.6016-30 10.801-57.602 21.602-84 1.1992-3.6016 3.6016-8.3984 7.1992-12 2.3984-3.6016 6-7.1992 10.801-8.3984 9.6016-4.8008 16.801-3.6016 22.801 2.3984 4.8008 4.8008 7.1992 12 8.3984 21.602 1.1992 10.801 1.1992 20.398 0 28.801-4.8008 24-9.6016 46.801-15.602 69.602-3.6016 13.199-3.6016 25.199-2.3984 34.801 2.3984 8.3984 6 12 12 8.3984 2.3984-1.1992 4.8008-4.8008 6-8.3984 7.1992-16.801 12-26.398 14.398-30 2.3984-3.6016 4.8008-7.1992 8.3984-9.6016 3.6016-3.6016 7.1992-6 10.801-7.1992 13.199-3.6016 21.602 1.1992 25.199 16.801 2.3984 7.1992 1.1992 16.801-2.3984 27.602-3.6016 9.6016-9.6016 20.398-20.398 34.801-8.3984 12-15.602 24-21.602 38.398-6 14.398-9.6016 27.602-10.801 42-1.1992 18 0 34.801 6 51.602 3.6016 13.199 6 20.398 6 20.398 6 24 8.3984 49.199 7.1992 75.602-1.1992 15.602-3.6016 30-8.3984 42-4.8008 13.199-10.801 26.398-18 39.602-7.1992 13.199-12 26.398-15.602 40.801-1.1992 7.1992-3.6016 19.199-4.8008 36-2.3984 33.602-9.6016 66-24 97.199-8.3984 19.199-16.801 38.398-25.199 57.602-4.8008 10.801-8.3984 21.602-9.6016 30-1.1992 6 0 10.801 2.3984 14.398 3.6016 4.8008 8.3984 7.1992 14.398 7.1992 8.3984 0 15.602-1.1992 22.801-3.6016 18-6 33.602-15.602 48-28.801 34.801-30 56.398-67.199 63.602-110.4 2.3984-13.199 2.3984-37.199 1.1992-69.602-1.1992-22.801-1.1992-46.801-2.3984-69.602-2.3984-61.199-1.1992-123.6 3.6016-184.8 3.6016-46.801 13.199-96 28.801-145.2 4.8008-16.801 12-30 20.398-40.801 8.3984-10.801 18-14.398 28.801-13.199 8.3984 1.1992 15.602 6 20.398 15.602 6 9.6016 7.1992 21.602 6 33.602-3.6016 30-9.6016 58.801-19.199 87.602-8.3984 25.199-14.398 45.602-16.801 62.398-2.3984 12 2.3984 16.801 13.199 13.199 4.8008-1.1992 10.801-6 15.602-13.199 4.8008-7.1992 10.801-19.199 16.801-37.199 4.8008-13.199 12-20.398 22.801-21.602 7.1992-1.1992 13.199 1.1992 18 4.8008 4.8008 4.8008 7.1992 10.801 7.1992 19.199 0 13.199-3.6016 25.199-8.3984 37.199-12 25.199-28.801 46.801-51.602 63.602-15.602 12-25.199 28.801-30 48-4.8008 26.398-4.8008 55.199 0 85.199 1.1992 9.6016 6 14.398 13.199 16.801 4.8008 1.1992 10.801 0 16.801-3.6016 18-9.6016 31.199-24 40.801-42 1.1992-1.1992 3.6016-9.6016 9.6016-25.199 3.6016-8.3984 7.1992-16.801 12-24 2.3984-3.6016 6-7.1992 10.801-9.6016 4.8008-2.3984 9.6016-3.6016 13.199-3.6016 10.801 0 16.801 6 20.398 19.199 1.1992 6 1.1992 10.801 1.1992 16.801-3.6016 64.801-36 109.2-96 133.2-20.398 8.3984-32.398 22.801-34.801 44.398 0 4.8008-1.1992 6-1.1992 7.1992-4.8008 33.602-14.398 64.801-28.801 96-3.6016 8.3984-6 14.398-4.8008 18 1.1992 7.1992 4.8008 10.801 12 12h15.602c16.801-2.3984 28.801-12 37.199-28.801 4.8008-9.6016 7.1992-18 9.6016-24 4.8008-13.199 10.801-25.199 19.199-36 9.6016-12 21.602-19.199 36-21.602 22.801-3.6016 38.398 4.8008 48 25.199 2.3984 6 3.6016 14.398 1.1992 26.398-2.3984 12-8.3984 24-16.801 38.398-26.398 40.801-61.199 68.398-106.8 82.801-16.801 4.8008-36 8.3984-56.398 9.6016-19.199 1.1992-38.398 0-57.602-2.3984-16.801-2.3984-33.602-3.6016-50.398-3.6016-14.398 0-27.602 1.1992-37.199 4.8008-24 8.3984-40.801 24-51.602 45.602-6 13.199-9.6016 34.801-12 63.602-2.3984 34.801-2.3984 64.801 0 92.398 1.1992 13.199-3.6016 22.801-15.602 26.398-9.6016 3.6016-20.398 4.8008-34.801 3.6016-8.3984 0-15.602-2.3984-20.398-4.8008-6-3.6016-10.801-8.3984-16.801-14.398-7.1992-8.3984-14.398-16.801-20.398-25.199-7.1992-9.6016-18-16.801-32.398-21.602-10.801-4.8008-26.398-7.1992-46.801-9.6016-31.199-2.3984-54-4.8008-69.602-7.1992-7.1992-1.1992-14.398-3.6016-24-9.6016-12-6-16.801-15.602-14.398-27.602 1.1992-7.1992 3.6016-12 8.3984-15.602 4.8008-3.6016 12-6 19.199-6 9.6016 0 18 2.3984 25.199 4.8008 8.3984 3.6016 16.801 4.8008 24 2.3984 6-1.1992 9.6016-6 9.6016-10.801 0-2.3984 0-7.1992-2.3984-13.199-2.3984-12-9.6016-20.398-19.199-27.602-12-8.3984-25.199-13.199-39.602-15.602-15.602-2.3984-32.398-3.6016-49.199-3.6016-26.398 0-54-6-81.602-16.801-14.398-6-26.398-14.398-36-26.398-6-7.1992-8.3984-15.602-8.3984-24 1.1992-13.199 8.3984-21.602 21.602-27.602 9.6016-4.8008 19.199-6 28.801-6 7.1992 0 16.801 2.3984 27.602 7.1992 18 7.1992 34.801 14.398 51.602 24 13.199 7.1992 28.801 13.199 44.398 16.801 7.1992 1.1992 13.199 1.1992 19.199-1.1992 9.6172-3.5977 12.016-5.9961 13.219-10.797zm164.4-160.8c9.6016 8.3984 14.398 13.199 16.801 15.602 4.8008 4.8008 10.801 8.3984 16.801 10.801 6 2.3984 10.801 1.1992 15.602-1.1992 2.3984-2.3984 6-6 8.3984-10.801 2.3984-4.8008 3.6016-8.3984 4.8008-13.199 7.1992-32.398 2.3984-63.602-14.398-92.398-7.1992-12-14.398-25.199-20.398-38.398-14.398-32.398-14.398-63.602 0-93.602 3.6016-6 7.1992-12 12-16.801s10.801-8.3984 16.801-12c9.6016-4.8008 15.602-8.3984 18-10.801 7.1992-7.1992 13.199-16.801 15.602-28.801 2.3984-12 3.6016-22.801 3.6016-32.398 0-4.8008-1.1992-8.3984-3.6016-10.801-3.6016-3.6016-7.1992-4.8008-12-3.6016-4.8008 1.1992-8.3984 4.8008-12 9.6016-3.6016 6-7.1992 13.199-10.801 20.398-4.8008 8.3984-8.3984 15.602-12 19.199-9.6016 12-20.398 24-32.398 33.602-7.1992 6-12 12-12 19.199-7.1992 44.398-15.602 84-25.199 121.2-4.8008 16.801-7.1992 28.801-8.3984 34.801-1.1992 13.199 0 25.199 3.6016 36 3.6016 12 12 22.801 22.801 32.398 4.7852 8.4023 8.3867 12 8.3867 12zm108-172.8c8.3984 2.3984 20.398-9.6016 27.602-28.801 6-19.199 3.6016-36-4.8008-39.602-8.3984-2.3984-20.398 9.6016-27.602 28.801-7.1992 19.203-4.8008 36.004 4.8008 39.602zm-159.6 474c7.1992 4.8008 14.398 6 20.398 1.1992 4.8008-3.6016 8.3984-8.3984 9.6016-15.602 1.1992-4.8008 2.3984-12 3.6016-19.199 3.6016-38.398 6-68.398 6-91.199 1.1992-25.199-1.1992-51.602-4.8008-76.801-3.6016-24-12-44.398-26.398-62.398-4.8008-6-13.199-15.602-26.398-30-9.6016-9.6016-19.199-19.199-30-27.602-6-4.8008-10.801-7.1992-15.602-8.3984-7.1992-1.1992-13.199 2.3984-18 8.3984-7.1992 9.6016-10.801 20.398-12 32.398-1.1992 9.6016 0 20.398 3.6016 33.602 3.6016 16.801 10.801 31.199 20.398 44.398 3.6016 4.8008 8.3984 12 14.398 19.199s10.801 14.398 14.398 19.199c12 20.398 19.199 43.199 22.801 68.398 2.3984 25.199 6 51.602 8.3984 76.801v7.1992c1.2031 10.809 3.6016 16.809 9.6016 20.406z"/>
</svg>
